<?xml version="1.0" encoding="utf-8"?>
<!-- Generator: Adobe Illustrator 26.0.2, SVG Export Plug-In . SVG Version: 6.00 Build 0)  -->
<svg version="1.1" id="Layer_1" xmlns="http://www.w3.org/2000/svg" xmlns:xlink="http://www.w3.org/1999/xlink" x="0px" y="0px"
	 viewBox="0 0 532.61 429.35" style="enable-background:new 0 0 532.61 429.35;" xml:space="preserve">
<style type="text/css">
	.st0{fill:#0088FF;}
</style>
<g>
	<g>
		
			<ellipse transform="matrix(0.4985 -0.8669 0.8669 0.4985 71.8236 446.4124)" class="st0" cx="421.74" cy="161.13" rx="14.47" ry="20.48"/>
	</g>
	<g>
		
			<ellipse transform="matrix(0.9137 -0.4065 0.4065 0.9137 -62.2957 142.7184)" class="st0" cx="304.8" cy="218" rx="47.99" ry="30.53"/>
	</g>
	<g>
		
			<ellipse transform="matrix(0.9254 -0.3789 0.3789 0.9254 -38.7857 166.1139)" class="st0" cx="402.66" cy="181.6" rx="26.16" ry="20.46"/>
	</g>
	<g>
		
			<ellipse transform="matrix(0.9959 -0.0906 0.0906 0.9959 -19.8071 24.1423)" class="st0" cx="256.02" cy="230.25" rx="26.16" ry="22.61"/>
	</g>
	<g>
		<path class="st0" d="M378.73,159.04c3.68-19.08,2.09-38.78,7.28-57.71c2.63-9.79,6.54-19.81,13.71-27.26
			c7-7.41,15.92-13.32,25.98-15.36l0.55,0.98c-3.37,3.73-6.57,7.18-9.54,10.73c-5.92,6.95-10.83,14.26-15.86,21.78
			c-5.24,7.53-8.23,16.22-10.39,25.18c-3.57,13.91-5.38,28.44-10.65,41.97C379.81,159.35,378.73,159.04,378.73,159.04L378.73,159.04
			z"/>
	</g>
	<g>
		<path class="st0" d="M383.84,158.98c8.38-9.68,11.86-22.22,18.39-33.21c3.83-6.56,10.39-15.09,14.84-21.32
			c7.76-10.3,19.71-20.68,33.51-20.04l0.3,1.08c-6.88,5.16-11.75,10.78-17.1,17.22c-5.02,6.38-11.78,11.95-17.37,17.88
			c-2.82,3.03-5.52,6.13-8.02,9.37c-6.54,8.18-11.52,17.92-18.93,25.55c-1.53,1.54-3.16,2.98-4.86,4.31L383.84,158.98L383.84,158.98
			z"/>
	</g>
	<g>
		<path class="st0" d="M391.74,146.65c-35.06-0.29-63.65,19.31-63.85,43.78c-0.2,24.46,28.06,44.53,63.13,44.81
			s63.65-19.31,63.85-43.78C455.07,166.99,426.81,146.93,391.74,146.65z M411.31,197.18c-5.71,9.93-21.72,11.42-35.77,3.35
			c-14.05-8.08-20.81-22.67-15.1-32.6c5.71-9.93,21.72-11.42,35.77-3.35C410.26,172.66,417.02,187.25,411.31,197.18z"/>
	</g>
	<g>
		<path class="st0" d="M115.4,366.3c-0.89,0-1.8-0.17-2.68-0.51c-3.74-1.48-5.57-5.71-4.09-9.45c5.15-13.02,13.69-23.84,21.96-34.3
			c1.84-2.33,3.69-4.67,5.48-7.02c11.28-14.74,21.09-30.7,29.16-47.41c1.75-3.62,6.1-5.14,9.73-3.39c3.62,1.75,5.14,6.1,3.39,9.73
			c-8.5,17.6-18.83,34.4-30.7,49.93c-1.84,2.41-3.73,4.8-5.62,7.2c-7.96,10.08-15.48,19.61-19.84,30.64
			C121.05,364.55,118.3,366.3,115.4,366.3z"/>
	</g>
	<path class="st0" d="M183.08,274.04c-2.88,8.79-5.92,17.84-8.8,26.44c-3.11,9.26-6.05,18-8.31,25.03c-1.23,3.83,0.87,7.93,4.7,9.17
		c1.31,0.42,2.66,0.45,3.91,0.16c2.4-0.57,4.45-2.34,5.26-4.86c2.24-6.94,5.16-15.65,8.25-24.86c4.24-12.62,8.8-26.22,12.74-38.62
		c-3.33,1.82-6.75,3.5-10.31,4.93C188.14,272.38,185.68,273.24,183.08,274.04z"/>
	<path class="st0" d="M222.65,316.2c-1.1,3.87,1.14,7.9,5.01,9c0.67,0.19,1.34,0.28,2,0.28c3.17,0,6.09-2.09,7-5.29
		c5.96-20.94,10.97-42.33,14.97-63.82c-5.16-0.58-9.93-2.32-13.91-4.98C233.74,273.21,228.7,294.93,222.65,316.2z"/>
	<g>
		<path class="st0" d="M255.61,362.55c-0.49,0-0.99-0.05-1.48-0.15c-3.94-0.82-6.47-4.67-5.66-8.61l15.12-73.04
			c1.47-7.09,2.98-14.41,3.26-21.47c0.4-10.39-1.84-21.16-4-31.57c-0.82-3.94,1.71-7.8,5.65-8.61c3.93-0.82,7.79,1.71,8.61,5.65
			c2.34,11.27,4.76,22.92,4.29,35.09c-0.32,8.27-1.96,16.2-3.55,23.86l-15.12,73.04C262.02,360.18,258.99,362.55,255.61,362.55z"/>
	</g>
	<path class="st0" d="M326.93,320.23c1.07,2.97,3.87,4.82,6.85,4.82c0.82,0,1.65-0.14,2.47-0.43c3.78-1.36,5.75-5.53,4.39-9.32
		c-7.82-21.72-16.65-43.25-26.32-64.31c-4.8,1.79-9.6,3.05-14.29,3.79C309.95,276.18,318.97,298.1,326.93,320.23z"/>
	<g>
		<path class="st0" d="M390.23,366.3c-2.92,0-5.68-1.77-6.8-4.66c-8.39-21.74-17.9-46.39-30.47-68.99
			c-13.37-24.03-28.93-43.07-46.26-56.59c-3.17-2.47-3.74-7.05-1.26-10.22c2.47-3.17,7.05-3.74,10.22-1.26
			c18.87,14.72,35.7,35.24,50.02,60.99c13.07,23.49,22.77,48.64,31.33,70.83c1.45,3.75-0.42,7.97-4.17,9.42
			C391.99,366.14,391.1,366.3,390.23,366.3z"/>
	</g>
	<g>
		<g>
			<path class="st0" d="M236.3,205.12c-3.95-9.36-10.88-17.13-18.15-24.23c-4.14-4.05-8.46-7.97-13.34-11.09
				c-16.03-10.25-36.98-10.81-54.98-4.62c-17.99,6.19-33.34,18.46-46.35,32.34c-4.09,4.36-8,8.92-11.29,13.91
				c-3.28,4.97-6.45,10.15-8.19,15.85c-2.27,7.45-3.23,13.73-3.55,18.89c-0.73,7.69,3.48,15.27,9.48,20.14
				c6,4.87,13.58,7.38,21.15,8.93c17.73,3.62,36.14,2.45,53.95-0.73c8.21-1.47,16.38-3.37,24.11-6.47
				c11.91-4.79,22.51-12.31,32.78-20.01c5.18-3.88,10.44-7.96,13.73-13.53C240.83,225.74,240.25,214.49,236.3,205.12z
				 M201.84,205.72c-4.45,3.78-75.5,45.68-98.03,42.59c-7.14-0.98-6.77-4.28-7.1-8.2c-0.32-3.92,1.28-7.73,3.07-11.23
				c9.52-18.58,25.14-33.4,42.17-45.48c8.93-6.34,16.28-9.93,30.29-9.68C185.41,173.96,219.23,190.93,201.84,205.72z"/>
		</g>
	</g>
</g>
</svg>
